<?xml version="1.0" encoding="UTF-8" standalone="no"?>
<!DOCTYPE svg PUBLIC "-//W3C//DTD SVG 1.1//EN"
 "http://www.w3.org/Graphics/SVG/1.1/DTD/svg11.dtd">
<!-- Generated by graphviz version 2.40.1 (20161225.0304)
 -->
<!-- Title: dependencies Pages: 1 -->
<svg width="1025pt" height="284pt"
 viewBox="0.00 0.00 1025.00 284.00" xmlns="http://www.w3.org/2000/svg" xmlns:xlink="http://www.w3.org/1999/xlink">
<g id="graph0" class="graph" transform="scale(1 1) rotate(0) translate(4 280)">
<title>dependencies</title>
<polygon fill="#ffffff" stroke="transparent" points="-4,4 -4,-280 1021,-280 1021,4 -4,4"/>
<text text-anchor="start" x="487.5091" y="-42.4" font-family="sans-serif" font-weight="bold" font-size="14.00" fill="#000000">Legend</text>
<polygon fill="#ffffb3" stroke="transparent" points="274.5,-10 274.5,-30 294.5,-30 294.5,-10 274.5,-10"/>
<text text-anchor="start" x="298.129" y="-15.4" font-family="sans-serif" font-size="14.00" fill="#000000"> &#160;Declarations</text>
<polygon fill="#8dd3c7" stroke="transparent" points="387.5,-10 387.5,-30 407.5,-30 407.5,-10 387.5,-10"/>
<text text-anchor="start" x="411.2251" y="-15.4" font-family="sans-serif" font-size="14.00" fill="#000000"> &#160;Module</text>
<polygon fill="#80b1d3" stroke="transparent" points="473.5,-10 473.5,-30 493.5,-30 493.5,-10 473.5,-10"/>
<text text-anchor="start" x="497.2812" y="-15.4" font-family="sans-serif" font-size="14.00" fill="#000000"> &#160;Bootstrap</text>
<polygon fill="#fdb462" stroke="transparent" points="570.5,-10 570.5,-30 590.5,-30 590.5,-10 570.5,-10"/>
<text text-anchor="start" x="594.1732" y="-15.4" font-family="sans-serif" font-size="14.00" fill="#000000"> &#160;Providers</text>
<polygon fill="#fb8072" stroke="transparent" points="666.5,-10 666.5,-30 686.5,-30 686.5,-10 666.5,-10"/>
<text text-anchor="start" x="690.2258" y="-15.4" font-family="sans-serif" font-size="14.00" fill="#000000"> &#160;Exports</text>
<g id="clust1" class="cluster">
<title>cluster_AppModule</title>
<polygon fill="none" stroke="#000000" stroke-dasharray="1,5" points="8,-70 8,-268 1009,-268 1009,-70 8,-70"/>
</g>
<g id="clust2" class="cluster">
<title>cluster_AppModule_declarations</title>
<polygon fill="none" stroke="#000000" points="16,-78 16,-130 1001,-130 1001,-78 16,-78"/>
</g>
<g id="clust11" class="cluster">
<title>cluster_AppModule_bootstrap</title>
<polygon fill="none" stroke="#000000" points="474,-208 474,-260 598,-260 598,-208 474,-208"/>
</g>
<!-- AppComponent -->
<g id="node1" class="node">
<title>AppComponent</title>
<polygon fill="#ffffb3" stroke="#000000" points="992.9399,-122 887.0601,-122 887.0601,-86 992.9399,-86 992.9399,-122"/>
<text text-anchor="middle" x="940" y="-99.8" font-family="Times,serif" font-size="14.00" fill="#000000">AppComponent</text>
</g>
<!-- AppModule -->
<g id="node7" class="node">
<title>AppModule</title>
<polygon fill="#8dd3c7" stroke="#000000" points="577.6571,-187 574.6571,-191 553.6571,-191 550.6571,-187 494.3429,-187 494.3429,-151 577.6571,-151 577.6571,-187"/>
<text text-anchor="middle" x="536" y="-164.8" font-family="Times,serif" font-size="14.00" fill="#000000">AppModule</text>
</g>
<!-- AppComponent&#45;&gt;AppModule -->
<g id="edge1" class="edge">
<title>AppComponent&#45;&gt;AppModule</title>
<path fill="none" stroke="#000000" d="M940,-122.2843C940,-143.3211 940,-175 940,-175 940,-175 587.7134,-175 587.7134,-175"/>
<polygon fill="#000000" stroke="#000000" points="587.7135,-171.5001 577.7134,-175 587.7134,-178.5001 587.7135,-171.5001"/>
</g>
<!-- DashboardComponent -->
<g id="node2" class="node">
<title>DashboardComponent</title>
<polygon fill="#ffffb3" stroke="#000000" points="868.9734,-122 727.0266,-122 727.0266,-86 868.9734,-86 868.9734,-122"/>
<text text-anchor="middle" x="798" y="-99.8" font-family="Times,serif" font-size="14.00" fill="#000000">DashboardComponent</text>
</g>
<!-- DashboardComponent&#45;&gt;AppModule -->
<g id="edge2" class="edge">
<title>DashboardComponent&#45;&gt;AppModule</title>
<path fill="none" stroke="#000000" d="M798,-122.0225C798,-139.3734 798,-163 798,-163 798,-163 587.8044,-163 587.8044,-163"/>
<polygon fill="#000000" stroke="#000000" points="587.8044,-159.5001 577.8044,-163 587.8044,-166.5001 587.8044,-159.5001"/>
</g>
<!-- ItemListPeopleComponent -->
<g id="node3" class="node">
<title>ItemListPeopleComponent</title>
<polygon fill="#ffffb3" stroke="#000000" points="709.3697,-122 542.6303,-122 542.6303,-86 709.3697,-86 709.3697,-122"/>
<text text-anchor="middle" x="626" y="-99.8" font-family="Times,serif" font-size="14.00" fill="#000000">ItemListPeopleComponent</text>
</g>
<!-- ItemListPeopleComponent&#45;&gt;AppModule -->
<g id="edge3" class="edge">
<title>ItemListPeopleComponent&#45;&gt;AppModule</title>
<path fill="none" stroke="#000000" d="M560.1967,-122.1061C560.1967,-122.1061 560.1967,-140.991 560.1967,-140.991"/>
<polygon fill="#000000" stroke="#000000" points="556.6968,-140.9909 560.1967,-150.991 563.6968,-140.991 556.6968,-140.9909"/>
</g>
<!-- ItemListFilmComponent -->
<g id="node4" class="node">
<title>ItemListFilmComponent</title>
<polygon fill="#ffffb3" stroke="#000000" points="524.7218,-122 369.2782,-122 369.2782,-86 524.7218,-86 524.7218,-122"/>
<text text-anchor="middle" x="447" y="-99.8" font-family="Times,serif" font-size="14.00" fill="#000000">ItemListFilmComponent</text>
</g>
<!-- ItemListFilmComponent&#45;&gt;AppModule -->
<g id="edge4" class="edge">
<title>ItemListFilmComponent&#45;&gt;AppModule</title>
<path fill="none" stroke="#000000" d="M509.3913,-122.1061C509.3913,-122.1061 509.3913,-140.991 509.3913,-140.991"/>
<polygon fill="#000000" stroke="#000000" points="505.8914,-140.9909 509.3913,-150.991 512.8914,-140.991 505.8914,-140.9909"/>
</g>
<!-- ItemListPlanetComponent -->
<g id="node5" class="node">
<title>ItemListPlanetComponent</title>
<polygon fill="#ffffb3" stroke="#000000" points="351.7604,-122 188.2396,-122 188.2396,-86 351.7604,-86 351.7604,-122"/>
<text text-anchor="middle" x="270" y="-99.8" font-family="Times,serif" font-size="14.00" fill="#000000">ItemListPlanetComponent</text>
</g>
<!-- ItemListPlanetComponent&#45;&gt;AppModule -->
<g id="edge5" class="edge">
<title>ItemListPlanetComponent&#45;&gt;AppModule</title>
<path fill="none" stroke="#000000" d="M270,-122.0225C270,-139.3734 270,-163 270,-163 270,-163 484.1449,-163 484.1449,-163"/>
<polygon fill="#000000" stroke="#000000" points="484.1449,-166.5001 494.1449,-163 484.1448,-159.5001 484.1449,-166.5001"/>
</g>
<!-- ItemDetailsComponent -->
<g id="node6" class="node">
<title>ItemDetailsComponent</title>
<polygon fill="#ffffb3" stroke="#000000" points="170.1414,-122 23.8586,-122 23.8586,-86 170.1414,-86 170.1414,-122"/>
<text text-anchor="middle" x="97" y="-99.8" font-family="Times,serif" font-size="14.00" fill="#000000">ItemDetailsComponent</text>
</g>
<!-- ItemDetailsComponent&#45;&gt;AppModule -->
<g id="edge6" class="edge">
<title>ItemDetailsComponent&#45;&gt;AppModule</title>
<path fill="none" stroke="#000000" d="M97,-122.2843C97,-143.3211 97,-175 97,-175 97,-175 484.3042,-175 484.3042,-175"/>
<polygon fill="#000000" stroke="#000000" points="484.3042,-178.5001 494.3042,-175 484.3041,-171.5001 484.3042,-178.5001"/>
</g>
<!-- AppComponent  -->
<g id="node8" class="node">
<title>AppComponent </title>
<polygon fill="#80b1d3" stroke="#000000" points="590.439,-252 481.561,-252 481.561,-216 590.439,-216 590.439,-252"/>
<text text-anchor="middle" x="536" y="-229.8" font-family="Times,serif" font-size="14.00" fill="#000000">AppComponent </text>
</g>
<!-- AppModule&#45;&gt;AppComponent  -->
<g id="edge7" class="edge">
<title>AppModule&#45;&gt;AppComponent </title>
<path fill="none" stroke="#000000" stroke-dasharray="1,5" d="M536,-187.1061C536,-187.1061 536,-205.991 536,-205.991"/>
<polygon fill="#000000" stroke="#000000" points="532.5001,-205.9909 536,-215.991 539.5001,-205.991 532.5001,-205.9909"/>
</g>
</g>
</svg>
